Plot: Two neglected wives fall in love with each other.

Made in India, where the film caused riots. Banned in Pakistan.

This torrent includes a short documentary about the film.

Mediainfo:
General
Format                                   : AVI
Format/Info                              : Audio Video Interleave
File size                                : 563 MiB
Duration                                 : 1h 47mn
Overall bit rate                         : 731 Kbps

Video
ID                                       : 0
Format                                   : MPEG-4 Visual
Codec ID                                 : DIVX
Codec ID/Info                            : Project Mayo
Codec ID/Hint                            : DivX 4
Duration                                 : 1h 47mn
Bit rate                                 : 565 Kbps
Width                                    : 576 pixels
Height                                   : 320 pixels
Display aspect ratio                     : 16:9
Frame rate                               : 29.970 fps
Color space                              : YUV
Chroma subsampling                       : 4:2:0
Compression mode                         : Lossy
Bits/(Pixel*Frame)                       : 0.102
Stream size                              : 435 MiB (77%)

Audio
ID                                       : 1
Format                                   : MPEG Audio
Codec ID                                 : 55
Codec ID/Hint                            : MP3
Duration                                 : 1h 47mn
Bit rate                                 : 128 Kbps
Channel(s)                               : 2 channels
Sampling rate                            : 48.0 KHz
Compression mode                         : Lossy
Stream size                              : 98.6 MiB (18%)
Alignment                                : Aligned on interleaves
